<svg id="レイヤー_1" data-name="レイヤー 1" xmlns="http://www.w3.org/2000/svg" xmlns:xlink="http://www.w3.org/1999/xlink" viewBox="0 0 1077.7 190.07"><defs><style>.cls-1{fill:none;}.cls-2{fill:#e60012;}.cls-3{clip-path:url(#clip-path);}.cls-4{fill:#fff;}</style><clipPath id="clip-path" transform="translate(0 0)"><rect class="cls-1" width="1077.7" height="190.07"/></clipPath></defs><title>title_main</title><polygon class="cls-2" points="50.34 49.78 50.34 98.83 15.49 49.78 0 49.78 0 140.14 20.65 140.14 20.65 91.09 55.51 140.14 71 140.14 71 49.78 50.34 49.78"/><g class="cls-3"><path class="cls-2" d="M83.91,58.3A11.62,11.62,0,1,1,95.53,69.92,11.74,11.74,0,0,1,83.91,58.3m1.94,17.3h19.36v64.54H85.84V75.6Z" transform="translate(0 0)"/><path class="cls-2" d="M181.37,100.51v39.63H162V103.35c0-8-5-11.75-11.23-11.75-7.1,0-12,4.13-12,13.3v35.24H119.41V75.6h19.36v6.07c3.49-4.78,9.94-7.87,18.46-7.87,13,0,24.14,9.29,24.14,26.72" transform="translate(0 0)"/><path class="cls-2" d="M219.19,94.19V117c0,5.55,4.78,6.07,13.3,5.55v17.56c-25.3,2.58-32.66-5-32.66-23.11V94.19H189.5V75.6h10.33V63.33l19.36-5.81V75.6h13.3V94.19h-13.3Z" transform="translate(0 0)"/><path class="cls-2" d="M275,124.65c5.29,0,9.81-2.07,12.39-4.9l15.49,8.91C296.52,137.43,287,142,274.7,142c-22.07,0-35.76-14.84-35.76-34.08s13.94-34.08,34.34-34.08c18.85,0,32.79,14.59,32.79,34.08a37.48,37.48,0,0,1-.77,7.75H259.47c2.45,6.71,8.39,9,15.49,9m11.88-23.49C284.77,93.67,279,91,273.15,91c-7.36,0-12.26,3.61-14.07,10.2h27.75Z" transform="translate(0 0)"/><path class="cls-2" d="M379,100.51v39.63H359.64V103.35c0-8-5-11.75-11.23-11.75-7.1,0-12,4.13-12,13.3v35.24H317V75.6H336.4v6.07c3.49-4.78,9.94-7.87,18.46-7.87,13,0,24.14,9.29,24.14,26.72" transform="translate(0 0)"/><path class="cls-2" d="M458.52,49.78v90.36H439.16v-6.07C434.9,139,428.57,142,419.92,142c-16.91,0-30.85-14.85-30.85-34.08S403,73.79,419.92,73.79c8.65,0,15,3,19.23,7.87V49.78h19.36Zm-19.36,58.09c0-9.68-6.46-15.75-15.36-15.75s-15.36,6.07-15.36,15.75,6.45,15.75,15.36,15.75,15.36-6.07,15.36-15.75" transform="translate(0 0)"/><path class="cls-2" d="M469.49,107.87A34.21,34.21,0,1,1,503.7,142a33.83,33.83,0,0,1-34.21-34.08m49.05,0c0-9.16-6.46-15.23-14.85-15.23s-14.85,6.07-14.85,15.23,6.45,15.23,14.85,15.23,14.85-6.07,14.85-15.23" transform="translate(0 0)"/><path class="cls-2" d="M1073.07,80.62L1021.24,9.81A24,24,0,0,0,1001.9,0h-456c-4.94,0-8.89,5.79-6,9.78l50,68.37c3.64,5,6.41,10.4,6.41,16.57s-3.11,12.11-6.72,17.07l-49.74,68.39c-2.9,4,.9,9.9,5.84,9.9h456.14a24,24,0,0,0,19.38-9.87l51.88-71.34a24,24,0,0,0,0-28.25" transform="translate(0 0)"/><path class="cls-4" d="M719.46,93.38c0,25.56-19,45.18-43.89,45.18H639.42V48.2h36.14c24.92,0,43.89,19.62,43.89,45.18m-19.88,0c0-15.49-9.81-25.3-24-25.3H660.07v50.6h15.49c14.2,0,24-9.81,24-25.3" transform="translate(0 0)"/><path class="cls-4" d="M725.91,56.71a11.62,11.62,0,1,1,11.62,11.62,11.74,11.74,0,0,1-11.62-11.62M727.84,74h19.36v64.54H727.84V74Z" transform="translate(0 0)"/><path class="cls-4" d="M797.55,72.72V94.67c-8-1.29-19.36,1.94-19.36,14.72v29.17H758.83V74h19.36V85.5c2.58-8.65,11.23-12.78,19.36-12.78" transform="translate(0 0)"/><path class="cls-4" d="M837.44,123.07c5.29,0,9.81-2.07,12.39-4.91l15.49,8.91c-6.33,8.78-15.88,13.3-28.14,13.3-22.08,0-35.76-14.85-35.76-34.08s13.94-34.08,34.34-34.08c18.85,0,32.79,14.59,32.79,34.08a37.47,37.47,0,0,1-.78,7.74H821.95c2.45,6.71,8.39,9,15.49,9m11.88-23.5c-2.07-7.49-7.87-10.2-13.68-10.2-7.36,0-12.26,3.61-14.07,10.2h27.75Z" transform="translate(0 0)"/><path class="cls-4" d="M875.65,106.29c0-19.23,14.59-34.08,34.21-34.08,12.52,0,23.62,6.58,29.17,16.52l-16.91,9.81c-2.2-4.52-6.84-7.23-12.52-7.23-8.39,0-14.59,6.07-14.59,15s6.2,15,14.59,15c5.68,0,10.46-2.71,12.52-7.23L939,123.71c-5.55,10.07-16.52,16.65-29.17,16.65-19.62,0-34.21-14.85-34.21-34.08" transform="translate(0 0)"/><path class="cls-4" d="M971.31,92.6v22.85c0,5.55,4.78,6.07,13.3,5.55v17.56c-25.3,2.58-32.66-5-32.66-23.11V92.6H941.62V74h10.33V61.75l19.36-5.81V74h13.3V92.6h-13.3Z" transform="translate(0 0)"/></g></svg>